<svg class="header__svg-logo header__svg-logo"  xmlns="http://www.w3.org/2000/svg" xmlns:xlink="http://www.w3.org/1999/xlink" viewBox="0 0 443.43 98.26" width="195.18" height="35">
  <defs>
    <style>
    .logo__text__fill{fill:#253858;}
    .header__svg-logo__icon--path--3{fill:#2684ff;}
    .header__svg-logo__icon--path--4{fill:url(#logo-gradient);}
    </style>
    <linearGradient id="logo-gradient" x1="64.01" y1="65.26" x2="32.99" y2="89.48" gradientUnits="userSpaceOnUse">
      <stop offset="0.18" stop-color="#0052cc"/>
      <stop offset="1" stop-color="#2684ff"/>
    </linearGradient>
  </defs>

<title>Bitbucket logo</title>
  <g class="header__svg-logo__icon">
    <path class="header__svg-logo__icon--path--3" d="M2,41.25a2,2,0,0,0-2,2.32L8.49,95.11a2.72,2.72,0,0,0,2.66,2.27H51.88a2,2,0,0,0,2-1.68l8.51-52.11a2,2,0,0,0-2-2.32ZM37.75,78.5h-13L21.23,60.12H40.9Z"/>
    <path class="header__svg-logo__icon--path--4" d="M59.67,60.12H40.9L37.75,78.5h-13L9.4,96.73a2.71,2.71,0,0,0,1.75.66H51.89a2,2,0,0,0,2-1.68Z"/>
  </g>
  <g class="header__svg-logo__atlassian svg-hide-on-stuck">
    <path class="logo__text__fill" d="M160.49,5.22c0,2.6,1.21,4.66,5.92,5.57,2.81.59,3.4,1,3.4,2s-.59,1.5-2.57,1.5a14.51,14.51,0,0,1-6.83-1.85v4.23a14,14,0,0,0,6.78,1.47c4.93,0,6.88-2.2,6.88-5.46m0,0c0-3.08-1.63-4.53-6.24-5.52-2.54-.56-3.16-1.12-3.16-1.93,0-1,.91-1.45,2.6-1.45a14.63,14.63,0,0,1,5.95,1.47v-4A13.44,13.44,0,0,0,167.39,0c-4.55,0-6.91,2-6.91,5.22"/>
    <polygon class="logo__text__fill" points="223.79 0.27 223.79 17.86 227.54 17.86 227.54 4.45 229.12 8.01 234.43 17.86 239.14 17.86 239.14 0.27 235.39 0.27 235.39 11.62 233.97 8.33 229.71 0.27 223.79 0.27"/>
    <rect class="logo__text__fill" x="195.85" y="0.27" width="4.1" height="17.6"/>
    <path class="logo__text__fill" d="M191.12,12.67c0-3.08-1.63-4.53-6.24-5.52-2.54-.56-3.16-1.12-3.16-1.93,0-1,.91-1.45,2.6-1.45a14.63,14.63,0,0,1,5.95,1.47v-4A13.44,13.44,0,0,0,184.45,0c-4.55,0-6.91,2-6.91,5.22,0,2.6,1.21,4.66,5.92,5.57,2.81.59,3.4,1,3.4,2s-.59,1.5-2.57,1.5a14.51,14.51,0,0,1-6.83-1.85v4.23a14,14,0,0,0,6.78,1.47c4.93,0,6.88-2.2,6.88-5.46"/>
    <polygon class="logo__text__fill" points="128.65 0.27 128.65 17.86 137.08 17.86 138.4 14.06 132.78 14.06 132.78 0.27 128.65 0.27"/><polygon class="logo__text__fill" points="112.01 0.27 112.01 4.07 116.57 4.07 116.57 17.86 120.69 17.86 120.69 4.07 125.56 4.07 125.56 0.27 112.01 0.27"/>
    <path class="logo__text__fill" d="M106,.27h-5.4l-6.14,17.6h4.69l.87-3a11.65,11.65,0,0,0,6.56,0l.87,3h4.69Zm-2.7,11.46a8,8,0,0,1-2.25-.32l2.25-7.68,2.25,7.68A8,8,0,0,1,103.33,11.73Z"/>
    <path class="logo__text__fill" d="M151.6.27h-5.4l-6.14,17.6h4.69l.87-3a11.65,11.65,0,0,0,6.56,0l.87,3h4.69Zm-2.7,11.46a8,8,0,0,1-2.25-.32l2.25-7.68,2.25,7.68A8,8,0,0,1,148.89,11.73Z"/>
    <path class="logo__text__fill" d="M214.71.27h-5.4l-6.14,17.6h4.69l.87-3a11.65,11.65,0,0,0,6.56,0l.87,3h4.69ZM212,11.73a8,8,0,0,1-2.25-.32L212,3.72l2.25,7.68A8,8,0,0,1,212,11.73Z"/>
  </g>
   
</svg>
